<svg width="20" height="20" viewBox="0 0 20 20" fill="none" xmlns="http://www.w3.org/2000/svg">
<path d="M14 1.93775C12.247 1.06802 10.2583 0.793342 8.33517 1.15533C6.41205 1.51732 4.6593 2.49626 3.34249 3.94382C2.02567 5.39139 1.21654 7.2287 1.03768 9.17741C0.858821 11.1261 1.31998 13.08 2.35128 14.7431C3.38259 16.4062 4.92785 17.6878 6.75295 18.3939C8.57805 19.0999 10.5835 19.1918 12.4656 18.6557C14.3476 18.1196 16.0036 16.9847 17.1828 15.4229C18.3619 13.8612 18.9998 11.9577 19 10.0008M18 2.00073L14.5 12.0007L12 14.0007M9.00001 10.0007C9.00001 10.2659 9.10537 10.5203 9.2929 10.7078C9.48044 10.8954 9.73479 11.0007 10 11.0007C10.2652 11.0007 10.5196 10.8954 10.7071 10.7078C10.8947 10.5203 11 10.2659 11 10.0007C11 9.73552 10.8947 9.48116 10.7071 9.29363C10.5196 9.10609 10.2652 9.00073 10 9.00073C9.73479 9.00073 9.48044 9.10609 9.2929 9.29363C9.10537 9.48116 9.00001 9.73552 9.00001 10.0007ZM17 2.00073C17 2.26595 17.1054 2.5203 17.2929 2.70784C17.4804 2.89538 17.7348 3.00073 18 3.00073C18.2652 3.00073 18.5196 2.89538 18.7071 2.70784C18.8947 2.5203 19 2.26595 19 2.00073C19 1.73552 18.8947 1.48116 18.7071 1.29363C18.5196 1.10609 18.2652 1.00073 18 1.00073C17.7348 1.00073 17.4804 1.10609 17.2929 1.29363C17.1054 1.48116 17 1.73552 17 2.00073Z" stroke="#354052" stroke-width="2" stroke-linecap="round" stroke-linejoin="round"/>
</svg>
